<mxfile host="app.diagrams.net" modified="2024-01-27T00:03:23.428Z" agent="Mozilla/5.0 (Windows NT 10.0; Win64; x64) AppleWebKit/537.36 (KHTML, like Gecko) Chrome/121.0.0.0 Safari/537.36" etag="PNu-qEudPpkM18tN53wL" version="23.0.2" type="device">
  <diagram name="Seite-1" id="hORT28RhgrB1PDeRyOAH">
    <mxGraphModel dx="1434" dy="754" grid="1" gridSize="10" guides="1" tooltips="1" connect="1" arrows="1" fold="1" page="1" pageScale="1" pageWidth="1169" pageHeight="827" math="0" shadow="0">
      <root>
        <mxCell id="0" />
        <mxCell id="1" parent="0" />
        <mxCell id="UnohrxZOo20k3bT616vb-1" value="&lt;font style=&quot;font-size: 17px;&quot;&gt;STM32&lt;/font&gt;" style="ellipse;whiteSpace=wrap;html=1;fillColor=#dae8fc;strokeColor=#6c8ebf;" vertex="1" parent="1">
          <mxGeometry x="245" y="310" width="120" height="80" as="geometry" />
        </mxCell>
        <mxCell id="UnohrxZOo20k3bT616vb-2" style="edgeStyle=orthogonalEdgeStyle;rounded=0;orthogonalLoop=1;jettySize=auto;html=1;exitX=1;exitY=0.5;exitDx=0;exitDy=0;entryX=0;entryY=0.5;entryDx=0;entryDy=0;" edge="1" parent="1" source="UnohrxZOo20k3bT616vb-3" target="UnohrxZOo20k3bT616vb-10">
          <mxGeometry relative="1" as="geometry" />
        </mxCell>
        <mxCell id="UnohrxZOo20k3bT616vb-3" value="&lt;font style=&quot;font-size: 17px;&quot;&gt;GUI&lt;/font&gt;" style="ellipse;whiteSpace=wrap;html=1;fillColor=#ffe6cc;strokeColor=#d79b00;" vertex="1" parent="1">
          <mxGeometry x="590" y="310" width="120" height="80" as="geometry" />
        </mxCell>
        <mxCell id="UnohrxZOo20k3bT616vb-4" value="" style="endArrow=none;dashed=1;html=1;rounded=0;exitX=1;exitY=0.5;exitDx=0;exitDy=0;entryX=0;entryY=0.5;entryDx=0;entryDy=0;" edge="1" parent="1" source="UnohrxZOo20k3bT616vb-1" target="UnohrxZOo20k3bT616vb-3">
          <mxGeometry width="50" height="50" relative="1" as="geometry">
            <mxPoint x="375" y="350" as="sourcePoint" />
            <mxPoint x="425" y="300" as="targetPoint" />
          </mxGeometry>
        </mxCell>
        <mxCell id="UnohrxZOo20k3bT616vb-5" value="&lt;font style=&quot;font-size: 17px;&quot;&gt;COM3&lt;/font&gt;" style="text;html=1;strokeColor=none;fillColor=none;align=center;verticalAlign=middle;whiteSpace=wrap;rounded=0;" vertex="1" parent="1">
          <mxGeometry x="455" y="360" width="60" height="30" as="geometry" />
        </mxCell>
        <mxCell id="UnohrxZOo20k3bT616vb-10" value="&lt;font style=&quot;font-size: 17px;&quot;&gt;Fehlermeldung&lt;/font&gt;" style="rounded=1;whiteSpace=wrap;html=1;fillColor=#b1ddf0;strokeColor=#10739e;" vertex="1" parent="1">
          <mxGeometry x="775" y="320" width="130" height="60" as="geometry" />
        </mxCell>
        <mxCell id="UnohrxZOo20k3bT616vb-19" style="edgeStyle=orthogonalEdgeStyle;rounded=0;orthogonalLoop=1;jettySize=auto;html=1;exitX=0.5;exitY=1;exitDx=0;exitDy=0;entryX=0.5;entryY=0;entryDx=0;entryDy=0;" edge="1" parent="1" source="UnohrxZOo20k3bT616vb-17" target="UnohrxZOo20k3bT616vb-18">
          <mxGeometry relative="1" as="geometry" />
        </mxCell>
        <mxCell id="UnohrxZOo20k3bT616vb-17" value="&lt;font style=&quot;font-size: 17px;&quot;&gt;X Motor reached&amp;nbsp;&lt;br&gt;limit&lt;/font&gt;" style="shape=hexagon;perimeter=hexagonPerimeter2;whiteSpace=wrap;html=1;fixedSize=1;fillColor=#f8cecc;strokeColor=#b85450;" vertex="1" parent="1">
          <mxGeometry x="220" y="110" width="170" height="50" as="geometry" />
        </mxCell>
        <mxCell id="UnohrxZOo20k3bT616vb-20" style="edgeStyle=orthogonalEdgeStyle;rounded=0;orthogonalLoop=1;jettySize=auto;html=1;exitX=0.5;exitY=1;exitDx=0;exitDy=0;entryX=0.5;entryY=0;entryDx=0;entryDy=0;" edge="1" parent="1" source="UnohrxZOo20k3bT616vb-18" target="UnohrxZOo20k3bT616vb-1">
          <mxGeometry relative="1" as="geometry" />
        </mxCell>
        <mxCell id="UnohrxZOo20k3bT616vb-18" value="&lt;span style=&quot;font-size: 17px;&quot;&gt;Interrupt&lt;/span&gt;" style="rounded=1;whiteSpace=wrap;html=1;fillColor=#b1ddf0;strokeColor=#10739e;" vertex="1" parent="1">
          <mxGeometry x="240" y="220" width="130" height="60" as="geometry" />
        </mxCell>
        <mxCell id="UnohrxZOo20k3bT616vb-21" value="&lt;font style=&quot;font-size: 17px;&quot;&gt;&quot;0&quot;&lt;/font&gt;" style="text;html=1;strokeColor=none;fillColor=none;align=center;verticalAlign=middle;whiteSpace=wrap;rounded=0;" vertex="1" parent="1">
          <mxGeometry x="455" y="320" width="60" height="30" as="geometry" />
        </mxCell>
      </root>
    </mxGraphModel>
  </diagram>
</mxfile>
